<svg xmlns="http://www.w3.org/2000/svg" viewBox="0 0 64 64">
  <defs>
    <linearGradient id="bg" x1="8" y1="6" x2="56" y2="58" gradientUnits="userSpaceOnUse">
      <stop offset="0" stop-color="#22d3ee" />
      <stop offset="1" stop-color="#10b981" />
    </linearGradient>
  </defs>
  <rect width="64" height="64" rx="18" fill="#020617" />
  <rect x="4" y="4" width="56" height="56" rx="14" fill="url(#bg)" opacity="0.18" />
  <path
    d="M20 42.5c0 1.2 1 2.2 2.2 2.2h19.6c1.2 0 2.2-1 2.2-2.2s-1-2.2-2.2-2.2H26.9l17.6-16.9c.9-.8.9-2.3.1-3.1-.9-.9-2.3-.9-3.1-.1L24 37V22.2c0-1.2-1-2.2-2.2-2.2s-2.2 1-2.2 2.2v20.3Z"
    fill="#e2e8f0"
  />
</svg>
